<?xml version="1.0" standalone="no"?>
<svg xmlns:xlink="http://www.w3.org/1999/xlink" id="wave" style="transform:rotate(0deg); transition: 0.3s" viewBox="0 0 1440 490" version="1.1" xmlns="http://www.w3.org/2000/svg"><defs><linearGradient id="sw-gradient-0" x1="0" x2="0" y1="1" y2="0"><stop stop-color="rgba(243, 106, 62, 1)" offset="0%"/><stop stop-color="rgba(255, 179, 11, 1)" offset="100%"/></linearGradient></defs><path style="transform:translate(0, 0px); opacity:1" fill="url(#sw-gradient-0)" d="M0,147L80,147C160,147,320,147,480,179.7C640,212,800,278,960,261.3C1120,245,1280,147,1440,114.3C1600,82,1760,114,1920,155.2C2080,196,2240,245,2400,220.5C2560,196,2720,98,2880,89.8C3040,82,3200,163,3360,187.8C3520,212,3680,180,3840,155.2C4000,131,4160,114,4320,122.5C4480,131,4640,163,4800,171.5C4960,180,5120,163,5280,196C5440,229,5600,310,5760,334.8C5920,359,6080,327,6240,277.7C6400,229,6560,163,6720,155.2C6880,147,7040,196,7200,220.5C7360,245,7520,245,7680,261.3C7840,278,8000,310,8160,285.8C8320,261,8480,180,8640,171.5C8800,163,8960,229,9120,285.8C9280,343,9440,392,9600,416.5C9760,441,9920,441,10080,424.7C10240,408,10400,376,10560,326.7C10720,278,10880,212,11040,212.3C11200,212,11360,278,11440,310.3L11520,343L11520,490L11440,490C11360,490,11200,490,11040,490C10880,490,10720,490,10560,490C10400,490,10240,490,10080,490C9920,490,9760,490,9600,490C9440,490,9280,490,9120,490C8960,490,8800,490,8640,490C8480,490,8320,490,8160,490C8000,490,7840,490,7680,490C7520,490,7360,490,7200,490C7040,490,6880,490,6720,490C6560,490,6400,490,6240,490C6080,490,5920,490,5760,490C5600,490,5440,490,5280,490C5120,490,4960,490,4800,490C4640,490,4480,490,4320,490C4160,490,4000,490,3840,490C3680,490,3520,490,3360,490C3200,490,3040,490,2880,490C2720,490,2560,490,2400,490C2240,490,2080,490,1920,490C1760,490,1600,490,1440,490C1280,490,1120,490,960,490C800,490,640,490,480,490C320,490,160,490,80,490L0,490Z"/></svg>